<?xml version="1.0" encoding="utf-8"?>
<!-- Generator: Adobe Illustrator 24.0.0, SVG Export Plug-In . SVG Version: 6.00 Build 0)  -->
<svg version="1.1" id="Layer_1_1_" xmlns="http://www.w3.org/2000/svg" xmlns:xlink="http://www.w3.org/1999/xlink" x="0px" y="0px"
	 viewBox="0 0 512 512" style="enable-background:new 0 0 512 512;" xml:space="preserve">
<style type="text/css">
	.st0{fill:#FFFFFF;}
</style>
<path class="st0" d="M448,320.8V96c0-22.1-17.9-40-40-40h-16V40c0-13.2-10.8-24-24-24s-24,10.8-24,24v16h-40V40
	c0-13.2-10.8-24-24-24s-24,10.8-24,24v16h-48V40c0-13.2-10.8-24-24-24s-24,10.8-24,24v16h-40V40c0-13.2-10.8-24-24-24S72,26.8,72,40
	v16H56c-22.1,0-40,17.9-40,40v320c0,22.1,17.9,40,40,40h269c16.6,28.6,47.6,48,83,48c52.9,0,96-43.1,96-96
	C504,369.3,481,336,448,320.8z M360,40c0-4.4,3.6-8,8-8s8,3.6,8,8v48c0,4.4-3.6,8-8,8s-8-3.6-8-8V40z M272,40c0-4.4,3.6-8,8-8
	s8,3.6,8,8v48c0,4.4-3.6,8-8,8s-8-3.6-8-8V40z M176,40c0-4.4,3.6-8,8-8s8,3.6,8,8v48c0,4.4-3.6,8-8,8s-8-3.6-8-8V40z M88,40
	c0-4.4,3.6-8,8-8s8,3.6,8,8v48c0,4.4-3.6,8-8,8s-8-3.6-8-8V40z M56,72h16v16c0,13.2,10.8,24,24,24s24-10.8,24-24V72h40v16
	c0,13.2,10.8,24,24,24s24-10.8,24-24V72h48v16c0,13.2,10.8,24,24,24s24-10.8,24-24V72h40v16c0,13.2,10.8,24,24,24s24-10.8,24-24V72
	h16c13.2,0,24,10.8,24,24v40H32V96C32,82.8,42.8,72,56,72z M56,440c-13.2,0-24-10.8-24-24V152h400v163.2c-7.7-2-15.7-3.2-24-3.2
	c-5.5,0-10.8,0.6-16,1.4V272c0-4.4-3.6-8-8-8h-48c-4.4,0-8,3.6-8,8v48c0,4.4,3.6,8,8,8h19c-25.9,17.2-43,46.6-43,80
	c0,11.2,2,22,5.6,32H56z M376,312h-32v-32h32V312z M408,488c-44.1,0-80-35.9-80-80s35.9-80,80-80s80,35.9,80,80S452.1,488,408,488z"
	/>
<path class="st0" d="M416,394.2V344h-16v50.2c-4.8,2.8-8,7.9-8,13.8c0,0.8,0.1,1.6,0.2,2.4L363,433.8l10,12.5l29.2-23.4
	c1.8,0.7,3.7,1.1,5.8,1.1c8.8,0,16-7.2,16-16C424,402.1,420.8,397,416,394.2z"/>
<path class="st0" d="M120,176H72c-4.4,0-8,3.6-8,8v48c0,4.4,3.6,8,8,8h48c4.4,0,8-3.6,8-8v-48C128,179.6,124.4,176,120,176z
	 M112,224H80v-32h32V224z"/>
<path class="st0" d="M208,176h-48c-4.4,0-8,3.6-8,8v48c0,4.4,3.6,8,8,8h48c4.4,0,8-3.6,8-8v-48C216,179.6,212.4,176,208,176z
	 M200,224h-32v-32h32V224z"/>
<path class="st0" d="M296,176h-48c-4.4,0-8,3.6-8,8v48c0,4.4,3.6,8,8,8h48c4.4,0,8-3.6,8-8v-48C304,179.6,300.4,176,296,176z
	 M288,224h-32v-32h32V224z"/>
<path class="st0" d="M336,240h48c4.4,0,8-3.6,8-8v-48c0-4.4-3.6-8-8-8h-48c-4.4,0-8,3.6-8,8v48C328,236.4,331.6,240,336,240z
	 M344,192h32v32h-32V192z"/>
<path class="st0" d="M120,264H72c-4.4,0-8,3.6-8,8v48c0,4.4,3.6,8,8,8h48c4.4,0,8-3.6,8-8v-48C128,267.6,124.4,264,120,264z
	 M112,312H80v-32h32V312z"/>
<path class="st0" d="M208,264h-48c-4.4,0-8,3.6-8,8v48c0,4.4,3.6,8,8,8h48c4.4,0,8-3.6,8-8v-48C216,267.6,212.4,264,208,264z
	 M200,312h-32v-32h32V312z"/>
<path class="st0" d="M296,264h-48c-4.4,0-8,3.6-8,8v48c0,4.4,3.6,8,8,8h48c4.4,0,8-3.6,8-8v-48C304,267.6,300.4,264,296,264z
	 M288,312h-32v-32h32V312z"/>
<path class="st0" d="M120,352H72c-4.4,0-8,3.6-8,8v48c0,4.4,3.6,8,8,8h48c4.4,0,8-3.6,8-8v-48C128,355.6,124.4,352,120,352z
	 M112,400H80v-32h32V400z"/>
<path class="st0" d="M208,352h-48c-4.4,0-8,3.6-8,8v48c0,4.4,3.6,8,8,8h48c4.4,0,8-3.6,8-8v-48C216,355.6,212.4,352,208,352z
	 M200,400h-32v-32h32V400z"/>
<path class="st0" d="M296,352h-48c-4.4,0-8,3.6-8,8v48c0,4.4,3.6,8,8,8h48c4.4,0,8-3.6,8-8v-48C304,355.6,300.4,352,296,352z
	 M288,400h-32v-32h32V400z"/>
</svg>
