<?xml version="1.0" encoding="utf-8"?>
<!-- Generator: Adobe Illustrator 24.0.0, SVG Export Plug-In . SVG Version: 6.00 Build 0)  -->
<svg version="1.1" id="Capa_1" xmlns="http://www.w3.org/2000/svg" xmlns:xlink="http://www.w3.org/1999/xlink" x="0px" y="0px"
	 viewBox="0 0 512 512" style="enable-background:new 0 0 512 512;" xml:space="preserve">
<style type="text/css">
	.st0{fill:#FFFFFF;}
</style>
<g>
	<path class="st0" d="M7.5,218.7c4.1,0,7.5-3.4,7.5-7.5v-38.9c0-24.4,6.5-48.5,18.7-69.5C45.6,82.3,62.6,65.1,82.9,53
		c3.6-2.1,4.7-6.7,2.6-10.3c-2.1-3.6-6.7-4.7-10.3-2.6C52.8,53.5,33.9,72.6,20.8,95.2C7.2,118.5,0,145.2,0,172.3v38.9
		C0,215.3,3.4,218.7,7.5,218.7z"/>
	<path class="st0" d="M263.7,199.7c-4.1,0-7.5,3.4-7.5,7.5v27.2c0,15.8,10.1,29.9,25.1,35.1l16.3,5.6c0.8,0.3,1.6,0.4,2.4,0.4
		c3.1,0,6-2,7.1-5.1c1.3-3.9-0.8-8.2-4.7-9.5l-16.3-5.6c-8.9-3-14.9-11.4-14.9-20.9v-27.2C271.2,203,267.8,199.7,263.7,199.7
		L263.7,199.7z"/>
	<path class="st0" d="M109.3,121.1c1.6,0,3.2-0.5,4.5-1.5c11.6-8.8,25.4-13.5,39.9-13.5c8.1,0,16.1,1.5,23.6,4.4
		c3.9,1.5,8.2-0.4,9.7-4.3c1.5-3.9-0.4-8.2-4.3-9.7c-9.3-3.6-19.1-5.4-29-5.4c-17.8,0-34.8,5.7-49,16.5c-3.3,2.5-3.9,7.2-1.4,10.5
		C104.8,120.1,107.1,121.1,109.3,121.1L109.3,121.1z"/>
	<path class="st0" d="M95.3,141.6c1.9-3.7,0.5-8.2-3.1-10.1c-3.7-1.9-8.2-0.5-10.1,3.1c-6.1,11.6-9.3,24.6-9.3,37.7v38.9
		c0,17.5,5.5,34.2,16,48.3c1.5,2,3.7,3,6,3c1.6,0,3.1-0.5,4.5-1.5c3.3-2.5,4-7.2,1.5-10.5c-8.5-11.5-13-25.1-13-39.4v-38.9
		C87.7,161.5,90.2,151.1,95.3,141.6L95.3,141.6z"/>
	<path class="st0" d="M418.9,276.5c-4.1-0.5-7.8,2.4-8.3,6.5c-7.7,62.7-61.3,110-124.5,110c-33.6,0-64.2-13.3-86.8-34.9
		c8-2.5,15.8-5.6,23.2-9.3c0.4-0.2,0.7-0.2,1.1-0.2l20.8,4.3c4,0.8,8-1.8,8.9-5.8c0.8-4-1.8-8-5.8-8.9l-20.8-4.3
		c-3.6-0.7-7.5-0.2-10.8,1.5c-8.8,4.4-18.2,7.9-27.8,10.4c-4.8-5.9-9-12.3-12.6-19.1c17.8-3.3,34.6-10.7,49.1-21.8
		c2.8-2.2,6.5-2.9,10-2l46,11.6c4,1,8.1-1.4,9.1-5.4c1-4-1.4-8.1-5.4-9.1l-46-11.6c-8-2-16.3-0.3-22.7,4.6
		c-13.7,10.4-29.7,17.1-46.5,19.6c-2.6-6.7-4.6-13.6-6-20.8c18.5-2.1,35.6-10.4,48.8-23.9c14.9-15.2,23.1-35.4,23.1-56.6v-38.9
		c0-6.2-0.7-12.3-2.1-18.3c6.3-3,13-5.5,19.9-7.4c2.4,8.8,3.6,17.9,3.6,27.2v0.3c0,4.1,3.4,7.5,7.5,7.5c4.1,0,7.5-3.4,7.5-7.5v-0.3
		c0-10.3-1.3-20.4-3.9-30.3c6.1-0.9,12.4-1.4,18.7-1.4c1.1,0,2.1,0,3.2,0c2.2,9.8,3.3,20,3.3,30.1v38.9c0,4.1,3.4,7.5,7.5,7.5
		c4.1,0,7.5-3.4,7.5-7.5v-38.9c0-9.7-0.9-19.3-2.7-28.8c55.1,8.3,99.2,52.5,105.8,109.4c0.5,4.1,4.2,7.1,8.3,6.6
		c4.1-0.5,7-4.2,6.6-8.3c-8.3-70.7-68.2-124-139.4-124c-77.4,0-140.4,63-140.4,140.4S208.6,408,286,408
		c70.8,0,130.7-52.9,139.3-123.1C425.9,280.7,423,277,418.9,276.5L418.9,276.5z M219.9,172.3v38.9c0,17.3-6.7,33.7-18.8,46.1
		c-10.8,11.1-24.9,17.9-40.1,19.6c-0.2-3.1-0.3-6.2-0.3-9.4c0-4.1,0.2-8.2,0.6-12.2c21.3-3.5,37.3-22,37.3-44.1v-33.4
		c6.2-6.1,13.1-11.5,20.5-16.2C219.6,165.1,219.9,168.7,219.9,172.3L219.9,172.3z M163.8,239.2c3.7-16,10.5-30.9,19.7-43.9v15.9
		C183.5,224.1,175.4,235.1,163.8,239.2z"/>
	<path class="st0" d="M503.7,445.1l-76-76c20.6-28.6,32.7-63.7,32.7-101.5c0-96.1-78.2-174.4-174.4-174.4c-0.2,0-0.3,0-0.5,0
		C257.8,47,207.7,18.5,153.8,18.5c-15.9,0-31.5,2.4-46.6,7.2c-3.9,1.3-6.1,5.5-4.9,9.4c1.3,3.9,5.5,6.1,9.4,4.9
		c13.6-4.3,27.7-6.5,42-6.5c45.9,0,88.8,22.9,114.6,60.6c-8.2,0.8-16.2,2.2-24,4.2c-22.7-27.9-57-44-92.7-43.4
		c-30.9,0.5-59.8,13-81.6,35.1c-21.8,22.1-33.7,51.3-33.7,82.3v62.1c0,9.4-6,17.8-14.9,20.9l-16.3,5.6c-3.9,1.3-6,5.6-4.7,9.5
		c1.1,3.1,4,5.1,7.1,5.1c0.8,0,1.6-0.1,2.4-0.4l16.3-5.6c15-5.1,25.1-19.2,25.1-35.1v-62.1c0-27,10.5-52.5,29.4-71.8
		c19-19.3,44.2-30.2,71.2-30.6c29-0.5,56.9,11.7,76.6,33.1c-19.6,6.9-37.6,17.1-53.3,30.1c-6.5-3.6-13.9-5.5-21.5-5.5
		c-24.7,0-44.7,20.1-44.7,44.7v10.7c0,4.1,3.4,7.5,7.5,7.5s7.5-3.4,7.5-7.5v-10.7c0-16.4,13.4-29.8,29.8-29.8c3.2,0,6.4,0.5,9.3,1.5
		c-18.5,18.4-32.9,41-41.7,66.1c-1.5-1.2-3.5-1.7-5.5-1.5c-4.1,0.5-7,4.3-6.5,8.4c0.8,5.8,2.7,11.4,5.6,16.5
		c-2.2,11-3.3,22.4-3.3,34c0,13.4,1.5,26.4,4.4,38.9c-8.1-3.2-15.8-7.5-23-12.7c-7.2-5.3-16.4-7.3-25.1-5.3l-50.3,11.5
		c-4,0.9-6.6,4.9-5.6,9c0.9,4,4.9,6.6,9,5.6L71.3,303c4.4-1,9.1,0,12.9,2.7c11.2,8.3,23.6,14.4,36.9,18.2
		c2.9,8.4,6.4,16.4,10.4,24.2c-13.7-2.2-27-6.5-39.5-12.7c-3.6-1.8-7.8-2.3-11.6-1.2l-29,7.6c-4,1-6.4,5.1-5.3,9.1
		c1,4,5.1,6.4,9.1,5.3l29-7.6c0.4-0.1,0.8,0,1.1,0.2c17.5,8.8,36.3,14,55.9,15.6c5.2,7.7,11,15,17.3,21.8c-1.6,0-3.1,0.1-4.7,0.1
		c-20.7,0-41-3.6-60.3-10.7c-3.9-1.4-8.2,0.6-9.6,4.4c-1.4,3.9,0.6,8.2,4.4,9.6c21,7.7,43,11.6,65.5,11.6c6.5,0,13-0.4,19.4-1
		c7.7,6.6,16,12.5,24.8,17.7c-31.9,6.8-65.3,6.2-96.9-1.9c-1.3-0.6-2.9-0.8-4.4-0.6c-4.1,0.7-6.8,4.6-6.1,8.7l0,0.1
		c0.5,2.9,2.6,5.2,5.5,5.9c18.8,4.9,38.2,7.5,57.6,7.5s38.9-2.5,57.6-7.5c1.8-0.5,3.3-1.6,4.3-3.1c21.5,9.5,45.3,14.8,70.3,14.8
		c37.9,0,72.9-12.1,101.5-32.7l10,10c1.5,1.5,3.4,2.2,5.3,2.2c1.9,0,3.8-0.7,5.3-2.2c2.9-2.9,2.9-7.7,0-10.6l-8.7-8.7
		c6.8-5.8,13.1-12.2,18.9-18.9l74.7,74.7c5.2,5.2,5.2,13.7,0,18.9c-5.2,5.2-13.7,5.2-18.9,0l-43.5-43.5c-2.9-2.9-7.7-2.9-10.6,0
		c-2.9,2.9-2.9,7.7,0,10.6l43.5,43.5c5.5,5.5,12.8,8.3,20.1,8.3c7.3,0,14.5-2.8,20.1-8.3C514.8,474.1,514.8,456.2,503.7,445.1
		L503.7,445.1z M286,426.9c-87.9,0-159.4-71.5-159.4-159.4S198.2,108.2,286,108.2s159.4,71.5,159.4,159.4S373.9,426.9,286,426.9
		L286,426.9z"/>
</g>
</svg>
