<?xml version="1.0" encoding="utf-8"?>
<!-- Generator: Adobe Illustrator 24.0.0, SVG Export Plug-In . SVG Version: 6.00 Build 0)  -->
<svg version="1.1" id="Capa_1" xmlns="http://www.w3.org/2000/svg" xmlns:xlink="http://www.w3.org/1999/xlink" x="0px" y="0px"
	 viewBox="0 0 512 512" style="enable-background:new 0 0 512 512;" xml:space="preserve">
<style type="text/css">
	.st0{fill:#FFFFFF;}
</style>
<g>
	<path class="st0" d="M198.5,49.4c4.6,0,8.4-3.8,8.4-8.4s-3.8-8.4-8.4-8.4s-8.4,3.8-8.4,8.4S193.9,49.4,198.5,49.4z"/>
	<path class="st0" d="M148.4,91.9h100.4c4.1,0,7.5-3.4,7.5-7.5c0-4.1-3.4-7.5-7.5-7.5H148.4c-4.1,0-7.5,3.4-7.5,7.5
		C140.9,88.5,144.2,91.9,148.4,91.9L148.4,91.9z"/>
	<path class="st0" d="M290.2,373.5v14.4c0,4.1,3.4,7.5,7.5,7.5s7.5-3.4,7.5-7.5v-14.4c0-4.1-3.4-7.5-7.5-7.5
		C293.6,366,290.2,369.3,290.2,373.5z"/>
	<path class="st0" d="M439.8,373.5v14.4c0,4.1,3.4,7.5,7.5,7.5s7.5-3.4,7.5-7.5v-14.4c0-4.1-3.4-7.5-7.5-7.5
		S439.8,369.3,439.8,373.5z"/>
	<path class="st0" d="M386.6,382.5c-7.5,8.5-20.7,8.5-28.1,0c-2.7-3.1-7.5-3.4-10.6-0.7c-3.1,2.7-3.4,7.5-0.7,10.6
		c13.4,15.4,37.3,15.4,50.7,0c2.7-3.1,2.4-7.9-0.7-10.6C394,379,389.3,379.4,386.6,382.5L386.6,382.5z"/>
	<path class="st0" d="M116.8,214.8l42.1-21.6c3.7-1.9,5.1-6.4,3.3-10.1c-1.9-3.7-6.4-5.1-10.1-3.3l-31.2,16v-9.3
		c0-4.1-3.4-7.5-7.5-7.5s-7.5,3.4-7.5,7.5v21.6C105.9,213.8,111.9,217.3,116.8,214.8L116.8,214.8z"/>
	<path class="st0" d="M194.8,204.8H261c4.1,0,7.5-3.4,7.5-7.5s-3.4-7.5-7.5-7.5h-66.2c-4.1,0-7.5,3.4-7.5,7.5
		S190.6,204.8,194.8,204.8z"/>
	<path class="st0" d="M116.8,283.4l42.1-21.6c3.7-1.9,5.1-6.4,3.3-10.1s-6.4-5.1-10.1-3.3l-31.2,16v-9.3c0-4.1-3.4-7.5-7.5-7.5
		s-7.5,3.4-7.5,7.5v21.6C105.9,282.3,111.9,285.9,116.8,283.4L116.8,283.4z"/>
	<path class="st0" d="M194.8,273.4H261c4.1,0,7.5-3.4,7.5-7.5c0-4.1-3.4-7.5-7.5-7.5h-66.2c-4.1,0-7.5,3.4-7.5,7.5
		C187.3,270.1,190.6,273.4,194.8,273.4z"/>
	<path class="st0" d="M113.4,352.8c3.2,0,1,0.1,45.5-22.4c3.7-1.9,5.1-6.4,3.3-10.1s-6.4-5.1-10.1-3.3l-31.2,16v-9.3
		c0-4.1-3.4-7.5-7.5-7.5s-7.5,3.4-7.5,7.5v21.6C105.9,349.5,109.3,352.8,113.4,352.8L113.4,352.8z"/>
	<path class="st0" d="M68.3,497.3h230.2c22.7,13.9,50.7,15.3,74,3.7c25.9,12.9,57.6,9.7,81.1-8.5c14.2-11,26.1-23.7,35.4-37.9
		c2.3-3.5,1.3-8.1-2.1-10.4s-8.1-1.3-10.4,2.1c-8.4,12.8-19.2,24.3-32.1,34.3c-19,14.7-45.3,17.9-67.3,5.9c-2.9-1.6-6.3-1.6-9.2,0
		c-0.3,0.2-0.6,0.3-0.9,0.5c-32.8,17.4-62.4-3.4-62.3-3.4c-3-2-5.3-3.8-8.4-6.3c-93.7-78-42.1-223.9,73.2-175.2
		c4.3,1.8,5.5-0.5,18-4.5c83.2-26.4,128.8,52.3,101.8,123.7c-1.5,3.9,0.5,8.2,4.4,9.7s8.2-0.5,9.7-4.4
		c22.5-59.6-0.1-126.7-54.7-144.7c7.9-17.1,8.4-36.3,1-52c-0.7-1.6-2-2.9-3.6-3.6c-15.2-7.1-32.9-6.9-49-0.3v-102
		c0-37.7-30.7-68.3-68.3-68.3h-20c-4.7-12-16.4-20.6-30-20.6h-40c-4.3-18.3-20.8-31.8-40.2-31.8S162.7,16.7,158.4,35h-40
		c-13.7,0-25.3,8.5-30,20.6h-20C30.7,55.6,0,86.2,0,123.9v305C0,466.6,30.7,497.3,68.3,497.3z M377.4,285c-1,0.4-3.3,1.2-4.9,1.9
		c-19.6-7.8-40.6-11.9-61.2-8.8c-6.4-12.1-8.4-26.7-3.4-39.4C337.6,227.2,373.6,252.4,377.4,285L377.4,285z M437.2,238.7
		c4.7,12.1,3.4,26.6-3.5,39.5c-13.2-2-27.2-1.2-41.7,2.4c-1.5-9.4-5.2-18.6-10.1-26.2C397.8,237.2,420.4,232.2,437.2,238.7z
		 M382.1,123.9v110.4c-2.9,2.1-6.6,5.2-9.6,8.3c-7.1-7.3-15.8-13.2-25.1-16.9v-97.4c0-12.3-10-22.4-22.4-22.4h-14.5
		c0.3-1.8,0.5-3.6,0.5-5.5V70.6h17.8C358.2,70.6,382.1,94.5,382.1,123.9z M118.3,50h46.5c4,0,7.3-3.1,7.5-7.1
		c0.8-13.9,12.3-24.7,26.2-24.7s25.4,10.9,26.2,24.7c0.2,4,3.5,7.1,7.5,7.1h46.5c9.5,0,17.2,7.8,17.2,17.2
		c-0.1,34.4,1.1,36.9-3,42.9c-3.2,4.6-8.6,7.5-14.2,7.5c-170.6,0-161.3,0.2-163.9-0.3c-8.2-1.7-13.8-8.8-13.8-16.9
		c0-36.1-0.1-33.4,0.2-35.5C102.4,56.5,109.6,50,118.3,50L118.3,50z M15,123.9c0-29.4,23.9-53.3,53.3-53.3h17.8v29.8
		c0,1.9,0.2,3.7,0.5,5.5H72.1c-12.3,0-22.4,10-22.4,22.4v90.1c0,4.1,3.4,7.5,7.5,7.5s7.5-3.4,7.5-7.5v-90.1c0-4.1,3.3-7.4,7.4-7.4
		h21.4c6.1,7.5,15.2,11.7,24.8,11.7c173.7,0,162.6,0.4,168.5-1c6.5-1.7,12.4-5.4,16.8-10.7H325c4.1,0,7.4,3.3,7.4,7.4v93.3
		c-11.4-1.7-22.2-0.1-31.4,3.7c-2.3,1-4.4,1.8-5.6,4.5c-7,14.9-7.3,33.9,1,51.9c-23.2,7.8-40.7,24.3-51.3,45.3h-50.2
		c-4.1,0-7.5,3.4-7.5,7.5c0,4.1,3.4,7.5,7.5,7.5h44c-0.1,0.4-0.8,2.6-1.2,3.8v0c-8.4,28.6-5.2,59.3,6.2,86.1H72.1
		c-4.1,0-7.4-3.3-7.4-7.4V248.4c0-4.1-3.4-7.5-7.5-7.5s-7.5,3.4-7.5,7.5v176.1c0,12.3,10,22.4,22.4,22.4h179.2
		c7.1,12.4,16.5,24.4,28.2,35.4H68.3c-29.4,0-53.3-23.9-53.3-53.3L15,123.9z"/>
</g>
</svg>
